<svg class="lds-gear" width="20px"  height="20px"  xmlns="http://www.w3.org/2000/svg" xmlns:xlink="http://www.w3.org/1999/xlink" viewBox="0 0 100 100" preserveAspectRatio="xMidYMid" style="background: none;"><g transform="translate(50 50)">
<g transform="rotate(153.212)">
<animateTransform attributeName="transform" type="rotate" values="0;360" keyTimes="0;1" dur="2s" repeatCount="indefinite"></animateTransform><path d="M29.287369291214944 -6.5 L39.287369291214944 -6.5 L39.287369291214944 6.5 L29.287369291214944 6.5 A30 30 0 0 1 25.305491506645296 16.113103351220175 L25.305491506645296 16.113103351220175 L32.37655931851077 23.18417116308565 L23.18417116308565 32.37655931851077 L16.113103351220175 25.305491506645296 A30 30 0 0 1 6.500000000000003 29.28736929121494 L6.500000000000003 29.28736929121494 L6.5000000000000036 39.287369291214944 L-6.499999999999997 39.287369291214944 L-6.499999999999998 29.287369291214944 A30 30 0 0 1 -16.11310335122018 25.305491506645293 L-16.11310335122018 25.305491506645293 L-23.184171163085654 32.37655931851077 L-32.37655931851077 23.184171163085658 L-25.305491506645293 16.113103351220182 A30 30 0 0 1 -29.287369291214944 6.499999999999997 L-29.287369291214944 6.499999999999997 L-39.287369291214944 6.499999999999998 L-39.287369291214944 -6.499999999999989 L-29.287369291214944 -6.49999999999999 A30 30 0 0 1 -25.305491506645296 -16.113103351220175 L-25.305491506645296 -16.113103351220175 L-32.37655931851077 -23.184171163085647 L-23.184171163085665 -32.37655931851076 L-16.113103351220186 -25.30549150664529 A30 30 0 0 1 -6.499999999999999 -29.287369291214944 L-6.499999999999999 -29.287369291214944 L-6.500000000000001 -39.287369291214944 L6.499999999999987 -39.287369291214944 L6.4999999999999885 -29.287369291214944 A30 30 0 0 1 16.113103351220175 -25.305491506645296 L16.113103351220175 -25.305491506645296 L23.184171163085647 -32.37655931851077 L32.37655931851076 -23.184171163085665 L25.30549150664529 -16.113103351220186 A30 30 0 0 1 29.287369291214944 -6.500000000000001 M0 -15A15 15 0 1 0 0 15 A15 15 0 1 0 0 -15" fill="#363636"></path></g></g></svg>